<svg width="1920" height="1080" viewBox="0 0 1920 1080" fill="none" xmlns="http://www.w3.org/2000/svg">
<g clip-path="url(#clip0_191_894)">
<rect width="1920" height="1080" fill="#FFF3D2"/>
<path d="M1586.22 467.686C1588.17 465.733 1588.17 462.567 1586.22 460.615L1554.4 428.795C1552.45 426.842 1549.28 426.842 1547.33 428.795C1545.38 430.748 1545.38 433.914 1547.33 435.866L1575.61 464.15L1547.33 492.435C1545.38 494.387 1545.38 497.553 1547.33 499.506C1549.28 501.458 1552.45 501.458 1554.4 499.506L1586.22 467.686ZM1493.63 464.15L1493.63 469.15L1582.69 469.15L1582.69 464.15L1582.69 459.15L1493.63 459.15L1493.63 464.15Z" fill="#202020"/>
<path d="M1339 555L1730 555" stroke="#202020" stroke-width="12" stroke-linecap="round" stroke-linejoin="round"/>
<circle cx="1440.2" cy="464.151" r="24.7643" stroke="#202020" stroke-width="12"/>
<circle cx="1630.26" cy="459.674" r="24.7643" stroke="#202020" stroke-width="12"/>
<circle cx="1707.36" cy="457.674" r="24.7643" fill="#FBF9F6" stroke="#202020" stroke-width="12"/>
<circle cx="1707.36" cy="380.764" r="24.7643" stroke="#202020" stroke-width="12"/>
<rect x="1339" y="358.904" width="50.1943" height="50.1943" stroke="black" stroke-width="12" stroke-linejoin="round"/>
<rect x="1339" y="439.055" width="50.1943" height="50.1943" stroke="black" stroke-width="12" stroke-linejoin="round"/>
<rect x="1415.1" y="358.904" width="50.1943" height="50.1943" fill="#FED54A" stroke="black" stroke-width="12" stroke-linejoin="round"/>
<rect x="1603.73" y="356.477" width="50.1943" height="50.1943" stroke="black" stroke-width="12" stroke-linejoin="round"/>
<ellipse cx="960" cy="401" rx="152" ry="154" fill="#FED54A"/>
<path fill-rule="evenodd" clip-rule="evenodd" d="M1082.55 339L1116.75 349.27L1042.98 423.038L1015.13 416.381L975.635 453.957C976.795 456.776 977.434 459.865 977.434 463.103C977.434 476.388 966.665 487.158 953.38 487.158C940.094 487.158 929.325 476.388 929.325 463.103C929.325 449.818 940.094 439.048 953.38 439.048C958.467 439.048 963.185 440.627 967.071 443.322L1006.5 405.805L1000.46 380.514L1074.23 306.746L1082.55 339ZM1072.14 374.641L1053.35 370.151L1048.86 351.361L1067 333.216L1071.28 349.826L1091.02 355.753L1072.14 374.641ZM1056.27 390.507L1037.48 386.016L1032.99 367.226L1015.46 384.754L1019.95 403.544L1038.74 408.034L1056.27 390.507Z" fill="#202020"/>
<path d="M815.854 463.104C815.854 387.15 877.427 325.578 953.38 325.578C972.841 325.578 991.342 329.616 1008.1 336.894C1011.55 338.39 1015.56 336.81 1017.05 333.363C1018.55 329.916 1016.97 325.909 1013.52 324.413C995.083 316.406 974.741 311.971 953.38 311.971C869.912 311.971 802.247 379.635 802.247 463.104C802.247 546.572 869.912 614.237 953.38 614.237C1036.85 614.237 1104.51 546.572 1104.51 463.104C1104.51 443.876 1100.92 425.472 1094.36 408.538C1093 405.034 1089.06 403.293 1085.56 404.651C1082.06 406.008 1080.31 409.948 1081.67 413.452C1087.63 428.844 1090.91 445.584 1090.91 463.104C1090.91 539.057 1029.33 600.63 953.38 600.63C877.427 600.63 815.854 539.057 815.854 463.104Z" fill="#202020"/>
<path d="M888.018 463.103C888.018 427.005 917.281 397.742 953.379 397.742C960.424 397.742 967.195 398.854 973.535 400.907C977.11 402.064 980.946 400.105 982.104 396.53C983.261 392.955 981.302 389.119 977.727 387.961C970.049 385.475 961.864 384.135 953.379 384.135C909.766 384.135 874.411 419.49 874.411 463.103C874.411 506.716 909.766 542.071 953.379 542.071C996.992 542.071 1032.35 506.716 1032.35 463.103C1032.35 459.153 1032.06 455.266 1031.5 451.465C1030.95 447.747 1027.49 445.18 1023.77 445.729C1020.05 446.279 1017.48 449.737 1018.03 453.454C1018.5 456.599 1018.74 459.821 1018.74 463.103C1018.74 499.201 989.477 528.464 953.379 528.464C917.281 528.464 888.018 499.201 888.018 463.103Z" fill="#202020"/>
<path d="M953.38 361.66C897.354 361.66 851.936 407.078 851.936 463.103C851.936 519.129 897.354 564.547 953.38 564.547C1009.41 564.547 1054.82 519.129 1054.82 463.103C1054.82 454.696 1053.8 446.536 1051.88 438.738C1050.98 435.089 1053.21 431.403 1056.86 430.504C1060.51 429.604 1064.19 431.833 1065.09 435.481C1067.27 444.337 1068.43 453.59 1068.43 463.103C1068.43 526.644 1016.92 578.154 953.38 578.154C889.839 578.154 838.329 526.644 838.329 463.103C838.329 399.563 889.839 348.053 953.38 348.053C964.834 348.053 975.908 349.728 986.365 352.853C989.965 353.928 992.012 357.719 990.936 361.319C989.861 364.92 986.07 366.966 982.47 365.89C973.263 363.14 963.5 361.66 953.38 361.66Z" fill="#202020"/>
<ellipse cx="356" cy="460" rx="152" ry="154" fill="#FED54A"/>
<path d="M284 286V536.412C284 540.603 287.397 544 291.588 544H542" stroke="#202020" stroke-width="15.1765" stroke-linecap="round"/>
<path d="M314.352 483.293L338.857 434.282C341.462 429.071 348.726 428.619 351.958 433.467L367.287 456.461C370.63 461.475 378.202 460.779 380.576 455.241L415.069 374.757C417.443 369.218 425.015 368.523 428.357 373.537L443.687 396.531C446.919 401.378 454.182 400.926 456.788 395.715L490.287 328.715C492.965 323.36 500.501 323.07 503.581 328.205L541.999 392.234" stroke="#202020" stroke-width="15.1765" stroke-linecap="round"/>
</g>
<defs>
<clipPath id="clip0_191_894">
<rect width="1920" height="1080" fill="white"/>
</clipPath>
</defs>
</svg>
