<svg width="1920" height="1080" viewBox="0 0 1920 1080" fill="none" xmlns="http://www.w3.org/2000/svg">
<rect width="1920" height="1080" fill="#FFF3D2"/>
<ellipse cx="993" cy="537" rx="152" ry="154" fill="#FED54A"/>
<ellipse cx="1537" cy="444" rx="104" ry="61" fill="#FED54A"/>
<ellipse cx="359.91" cy="390.5" rx="35.039" ry="35.5" fill="#FED54A"/>
<circle cx="246" cy="548.998" r="15.3333" stroke="black" stroke-width="15.3333"/>
<circle cx="353.334" cy="548.998" r="15.3333" stroke="black" stroke-width="15.3333"/>
<circle cx="475.998" cy="548.998" r="15.3333" stroke="black" stroke-width="15.3333"/>
<circle cx="261.334" cy="319" r="15.3333" stroke="black" stroke-width="15.3333"/>
<circle cx="475.998" cy="349.666" r="15.3333" stroke="black" stroke-width="15.3333"/>
<circle cx="269.001" cy="449.333" r="23" stroke="black" stroke-width="15.3333"/>
<circle cx="437.669" cy="480.001" r="23" stroke="black" stroke-width="15.3333"/>
<circle cx="360.998" cy="388.002" r="38.3333" stroke="black" stroke-width="15.3333"/>
<path d="M460.665 349.666L391.665 364.999M383.998 418.666L422.331 456.999M452.998 502.999L468.331 533.666M368.665 541.333L414.665 495.333M245.998 533.666L261.331 472.333M284.331 472.333L337.998 533.666M261.331 334.333L268.998 426.333M291.998 433.999L322.665 410.999M276.665 326.666L330.331 357.333" stroke="black" stroke-width="15.3333" stroke-linecap="round"/>
<path d="M936.593 269.407C948.135 267.386 957.806 270.758 964.532 277.074C971.096 283.238 974.6 291.959 974.601 300.385V333.462H996.278V305.683C996.278 302.142 999.149 299.271 1002.69 299.271H1032C1032.15 299.271 1032.31 299.279 1032.46 299.29C1035.91 287.871 1046.51 279.555 1059.05 279.555C1074.4 279.555 1086.83 291.993 1086.83 307.335C1086.83 322.677 1074.4 335.114 1059.05 335.114C1045.34 335.114 1033.94 325.168 1031.68 312.094H1009.1V339.873C1009.1 343.413 1006.23 346.284 1002.69 346.284H974.601V364.299H1067.87C1071.01 352.401 1081.85 343.628 1094.73 343.628C1110.07 343.628 1122.51 356.066 1122.51 371.408C1122.51 386.75 1110.07 399.187 1094.73 399.188C1081.35 399.188 1070.17 389.723 1067.54 377.121H974.601V401.058H996.584C1000.12 401.058 1002.99 403.928 1002.99 407.469V430.034H1031.81C1034.35 417.308 1045.58 407.718 1059.05 407.718C1074.4 407.718 1086.83 420.156 1086.83 435.498C1086.83 450.84 1074.4 463.277 1059.05 463.277C1046.26 463.277 1035.48 454.624 1032.26 442.849C1032.17 442.852 1032.08 442.855 1032 442.855H996.584C993.043 442.855 990.173 439.986 990.173 436.445V413.88H974.601V496.518H1071.93C1073.45 482.613 1085.23 471.792 1099.54 471.792C1114.88 471.792 1127.32 484.23 1127.32 499.572C1127.32 514.914 1114.88 527.352 1099.54 527.352C1087.64 527.351 1077.48 519.863 1073.53 509.34H974.601V533.264H1005.67C1009.21 533.264 1012.08 536.134 1012.08 539.675V558.907H1029.42C1031.67 545.822 1043.07 535.865 1056.8 535.865C1072.14 535.865 1084.58 548.303 1084.58 563.646C1084.58 578.988 1072.14 591.425 1056.8 591.425C1044.27 591.425 1033.68 583.128 1030.22 571.729H1005.67C1002.13 571.729 999.258 568.858 999.258 565.317V546.086H974.601V575.049C974.6 583.4 970.111 592.075 962.498 597.293C954.574 602.724 943.73 604.148 931.724 598.851C923.039 595.019 917.428 587.269 915.388 578.446C912.248 579.75 908.759 580.663 905.158 581.014C896.253 581.88 886 579.397 877.681 570.45C872.6 564.986 870.195 558.687 869.65 552.422C867.933 552.496 866.23 552.34 864.618 552.012C859.661 551.003 854.832 548.3 851.108 544.514C847.354 540.696 844.461 535.5 843.943 529.385C843.875 528.574 843.85 527.759 843.867 526.94C836.218 525.076 829.67 519.674 825.771 513.178C821.398 505.889 819.842 496.336 824.196 487.479C820.916 486.117 817.266 484.052 813.942 481C808.158 475.688 803.68 467.645 803.68 456.214C803.68 446.047 808.888 437.402 816.353 432.414C815.659 431.419 815.05 430.379 814.53 429.327C812.691 425.606 811.64 421.191 811.731 416.703C811.824 412.188 813.085 407.403 816.1 403.223C818.462 399.947 821.736 397.274 825.891 395.417C825.783 395.165 825.678 394.909 825.576 394.65C821.588 384.472 822.789 375.276 827.366 368.223C830.719 363.057 835.667 359.369 840.973 357.271C840.394 355.109 840.029 352.888 839.896 350.665C839.264 340.064 843.822 328.674 856.01 321.788L856.451 321.539L856.926 321.361C863.876 318.774 870.345 318.047 876.172 319.014C879.676 308.078 887.029 301.96 895.099 299.169C900.702 297.231 906.464 296.945 911.269 297.418C912.881 284.656 922.001 271.964 936.593 269.407ZM955.755 286.421C952.035 282.928 946.46 280.695 938.805 282.036C930.598 283.474 924.604 291.196 923.896 299.916C923.554 304.123 924.517 308.157 926.792 311.388C929.021 314.552 932.834 317.41 939.079 318.788C942.536 319.551 944.721 322.972 943.959 326.43C943.196 329.887 939.775 332.071 936.317 331.309C927.318 329.323 920.588 324.846 916.31 318.771C914.485 316.18 913.168 313.384 912.302 310.499C908.802 309.845 903.825 309.718 899.289 311.286C894.692 312.876 890.186 316.284 888.067 323.988C889.997 325.402 891.711 327.041 893.204 328.84C900.439 337.555 902.609 350.091 899.854 360.346C898.936 363.765 895.419 365.792 892 364.874C888.581 363.955 886.553 360.439 887.472 357.02C889.234 350.457 887.707 342.291 883.34 337.03C881.243 334.505 878.528 332.677 875.149 331.878C871.848 331.097 867.486 331.2 861.899 333.194C854.708 337.444 852.332 343.823 852.694 349.902C853.091 356.559 856.697 362.155 860.577 364.256C863.69 365.942 864.847 369.832 863.162 372.945C861.476 376.059 857.585 377.216 854.472 375.53C851.461 373.9 848.839 371.588 846.677 368.835C843.234 369.957 840.073 372.197 838.122 375.202C835.97 378.519 834.913 383.336 837.514 389.973C839.725 395.615 844.866 398.704 850.824 399.24C857.062 399.801 862.442 397.428 864.701 394.224C866.741 391.33 870.74 390.638 873.634 392.678C876.527 394.718 877.219 398.718 875.18 401.611C869.535 409.618 859.011 412.85 849.675 412.01C844.256 411.522 838.682 409.62 834.065 406.053C833.834 406.151 833.595 406.239 833.348 406.312C829.778 407.354 827.717 409.033 826.499 410.722C825.244 412.462 824.599 414.615 824.551 416.966C824.502 419.344 825.075 421.725 826.023 423.645C827.012 425.643 828.131 426.616 828.757 426.927C829.273 427.183 829.738 427.5 830.15 427.863C832.652 427.768 835.204 428.038 837.741 428.726C841.158 429.651 843.178 433.172 842.253 436.589C841.327 440.006 837.807 442.026 834.39 441.101C826.285 438.906 816.502 445.607 816.502 456.213C816.502 463.907 819.364 468.571 822.615 471.557C826.062 474.722 830.28 476.275 832.93 476.859C833.395 476.962 833.836 477.114 834.251 477.307C839.552 474.42 845.458 473.539 850.933 474.181C859.012 475.128 866.995 479.505 871.026 486.71C872.755 489.8 871.651 493.706 868.562 495.435C865.472 497.163 861.565 496.059 859.837 492.97C858.222 490.085 854.347 487.49 849.439 486.915C844.837 486.376 840.098 487.72 836.621 491.546C833.483 496.276 833.883 501.776 836.766 506.58C839.356 510.896 843.468 513.811 847.472 514.602C848.252 513.243 849.163 511.894 850.207 510.562C852.39 507.775 856.42 507.285 859.207 509.468C861.994 511.651 862.483 515.681 860.3 518.468C857.202 522.422 856.504 525.757 856.72 528.303C856.944 530.946 858.217 533.457 860.25 535.524C862.314 537.624 864.897 538.984 867.174 539.447C869.24 539.867 870.477 539.479 871.141 539.012C874.019 529.553 880.542 520.957 888.355 516.726C891.469 515.04 895.359 516.198 897.045 519.311C898.731 522.424 897.573 526.315 894.46 528.001C889.985 530.424 885.306 536.182 883.308 543.068C881.373 549.734 882.191 556.472 887.07 561.72C892.303 567.346 898.424 568.787 903.916 568.253C909.183 567.74 913.363 565.467 915.281 563.684C917.836 551.732 926.937 540.567 943.694 536.525C947.136 535.696 950.6 537.813 951.43 541.255C952.26 544.697 950.142 548.16 946.7 548.99C921.073 555.171 924.386 581.599 936.898 587.12C945.22 590.791 951.315 589.413 955.249 586.717C959.493 583.807 961.779 579.029 961.779 575.049V496C947.458 492.911 936.211 485.255 928.227 477.167C920.251 469.088 915.064 460.098 913.385 453.904C912.459 450.488 914.478 446.966 917.895 446.039C921.311 445.113 924.833 447.132 925.76 450.549C926.571 453.538 929.407 459.126 934.445 465.002C936.725 460.987 937.304 456.233 936.767 451.269C936.101 445.123 933.779 439.406 931.93 436.193C930.163 433.125 931.219 429.206 934.287 427.439C937.355 425.674 941.275 426.729 943.041 429.797C945.627 434.289 948.627 441.698 949.514 449.889C950.332 457.446 949.393 466.292 943.94 473.93C948.977 477.722 954.941 480.925 961.779 482.805V300.385C961.779 295.358 959.637 290.066 955.755 286.421ZM1056.8 548.688C1048.54 548.688 1041.84 555.385 1041.84 563.646C1041.84 571.907 1048.54 578.603 1056.8 578.604C1065.06 578.603 1071.76 571.907 1071.76 563.646C1071.76 555.384 1065.06 548.688 1056.8 548.688ZM901.145 492.892C901.774 489.408 905.108 487.093 908.592 487.722C914.121 488.72 922.314 491.483 929.548 496.679C936.862 501.933 943.658 510.047 944.956 521.646C945.35 525.165 942.817 528.336 939.299 528.73C935.78 529.124 932.609 526.591 932.215 523.072C931.885 520.13 930.972 517.503 929.624 515.158C928.976 515.854 928.283 516.549 927.546 517.225C924.188 520.3 919.489 523.419 913.689 524.378C910.196 524.955 906.896 522.592 906.318 519.099C905.741 515.606 908.105 512.306 911.598 511.729C914.1 511.315 916.607 509.857 918.885 507.771C919.494 507.212 920.055 506.636 920.563 506.069C915.499 502.812 909.935 500.992 906.314 500.339C902.83 499.71 900.516 496.376 901.145 492.892ZM1099.54 484.614C1091.28 484.614 1084.58 491.311 1084.58 499.572C1084.58 507.833 1091.28 514.53 1099.54 514.53C1107.8 514.53 1114.5 507.833 1114.5 499.572C1114.5 491.311 1107.8 484.614 1099.54 484.614ZM841.27 451.876C848.481 440.243 870.981 421.645 904.39 434.71C907.687 435.999 909.314 439.717 908.025 443.015C906.736 446.312 903.017 447.94 899.72 446.65C894.597 444.647 889.845 443.588 885.479 443.236C885.939 445.565 886.306 448.119 886.488 450.783C886.924 457.144 886.366 464.788 882.946 471.59C881.356 474.753 877.503 476.028 874.34 474.438C871.177 472.848 869.901 468.994 871.491 465.831C873.482 461.871 874.05 456.809 873.697 451.66C873.514 448.98 873.091 446.453 872.6 444.306C861.973 447.078 855.027 454.017 852.166 458.632C850.3 461.64 846.349 462.568 843.34 460.703C840.331 458.838 839.404 454.885 841.27 451.876ZM1059.05 420.54C1050.79 420.54 1044.1 427.237 1044.1 435.498C1044.1 443.759 1050.79 450.456 1059.05 450.456C1067.32 450.456 1074.01 443.759 1074.01 435.498C1074.01 427.237 1067.32 420.54 1059.05 420.54ZM878.293 381.26C878.828 377.76 882.098 375.356 885.598 375.891C897.467 377.703 920.492 389.255 921.529 420.129C921.648 423.667 918.875 426.632 915.337 426.751C911.798 426.87 908.834 424.098 908.715 420.56C907.944 397.623 891.368 389.741 883.662 388.564C880.162 388.03 877.758 384.76 878.293 381.26ZM914.646 341.13C926.38 340.117 948.388 347.549 956.412 378.415C957.303 381.841 955.247 385.342 951.82 386.232C948.394 387.123 944.894 385.067 944.003 381.641C943.386 379.266 942.677 377.087 941.896 375.089C938.918 377.687 935.557 379.477 932.343 380.676C926.622 382.81 920.854 383.292 917.057 383.057C913.523 382.837 910.836 379.795 911.055 376.262C911.274 372.728 914.316 370.041 917.85 370.26C920.075 370.398 924.021 370.096 927.861 368.663C930.828 367.556 933.409 365.907 935.238 363.557C928.071 355.047 919.503 353.58 915.75 353.903C912.223 354.208 909.116 351.595 908.812 348.067C908.507 344.541 911.12 341.435 914.646 341.13ZM1094.73 356.45C1086.47 356.45 1079.77 363.147 1079.77 371.408C1079.77 379.669 1086.47 386.366 1094.73 386.366C1102.99 386.366 1109.69 379.669 1109.69 371.408C1109.69 363.147 1102.99 356.45 1094.73 356.45ZM1059.05 292.377C1050.79 292.377 1044.1 299.074 1044.1 307.335C1044.1 315.596 1050.79 322.293 1059.05 322.293C1067.32 322.293 1074.01 315.596 1074.01 307.335C1074.01 299.074 1067.32 292.377 1059.05 292.377Z" fill="#202020"/>
<path fill-rule="evenodd" clip-rule="evenodd" d="M1505.27 467.1H1493.19L1516.29 402.5H1529.27L1552.37 467.1H1540.24L1534.78 450.402H1510.74L1505.27 467.1ZM1522.91 414.006H1522.64L1513.65 441.493H1531.87L1522.91 414.006Z" fill="#202020"/>
<path d="M1570.81 467.1H1559.26V402.5H1570.81V467.1Z" fill="#202020"/>
<path fill-rule="evenodd" clip-rule="evenodd" d="M1406.42 446.823C1406.42 423.572 1423.11 404.218 1445.16 400.077C1444.86 397.606 1444.7 395.09 1444.7 392.538C1444.7 358.09 1472.63 330.164 1507.08 330.164C1530.01 330.164 1550.04 342.535 1560.88 360.966C1563.65 360.423 1566.52 360.138 1569.45 360.138C1589.65 360.138 1606.69 373.651 1612.03 392.13C1637.65 394.984 1657.58 416.715 1657.58 443.1C1657.58 471.126 1635.1 493.901 1607.19 494.38V494.388H1537.28V512.028H1547.86C1551.75 512.028 1554.9 515.184 1554.9 519.076V529.81H1596.89V519.076C1596.89 515.184 1600.05 512.028 1603.94 512.028H1635.65C1639.54 512.028 1642.7 515.184 1642.7 519.076V550.788C1642.7 554.68 1639.54 557.835 1635.65 557.835H1603.94C1600.05 557.835 1596.89 554.68 1596.89 550.788V540.381H1554.9V550.788C1554.9 554.68 1551.75 557.835 1547.86 557.835H1516.14C1512.25 557.835 1509.1 554.68 1509.1 550.788V540.381H1467.11V550.788C1467.11 554.68 1463.95 557.836 1460.06 557.836H1428.35C1424.46 557.836 1421.3 554.68 1421.3 550.788V519.076C1421.3 515.184 1424.46 512.029 1428.35 512.029H1460.06C1463.95 512.029 1467.11 515.184 1467.11 519.076V529.81H1509.1V519.076C1509.1 515.184 1512.25 512.028 1516.14 512.028H1526.71V494.388H1453.33C1427.36 494.034 1406.42 472.872 1406.42 446.823ZM1607.01 483.81L1606.65 483.816H1606.3L1606.29 483.816L1606.28 483.816H1454L1453.99 483.816L1453.98 483.816H1453.73L1453.47 483.813C1433.28 483.538 1417 467.082 1417 446.823C1417 428.752 1429.96 413.686 1447.11 410.467L1456.83 408.64L1455.65 398.813C1455.4 396.76 1455.28 394.666 1455.28 392.538C1455.28 363.928 1478.47 340.735 1507.08 340.735C1526.11 340.735 1542.75 350.99 1551.77 366.325L1555.57 372.78L1562.91 371.34C1565.02 370.928 1567.21 370.71 1569.45 370.71C1584.82 370.71 1597.81 380.987 1601.88 395.064L1603.84 401.853L1610.86 402.636C1631.19 404.901 1647.01 422.161 1647.01 443.1C1647.01 465.348 1629.16 483.43 1607.01 483.81ZM1519.67 522.6V547.264H1544.33V522.6H1519.67ZM1431.87 547.264V522.6H1456.54V547.264H1431.87ZM1607.46 522.6V547.264H1632.13V522.6H1607.46Z" fill="#202020"/>
</svg>
